REM DIRINDEX 1\2,1\3,1\4,1\5\6,1\5\7,1\8
REM DIRNAME cjc115,folder01,folder02,folder03,folder04,folder05,folder06,folder07
TITLE ""
FILE "128 Åy128ÅzUnit7 (1453 flaw_1464 pinch).mp3" MP3
  TRACK 01 AUDIO
    TITLE "0:"
    INDEX 01 00:00:00
  TRACK 02 AUDIO
    TITLE "2:cjc115_4974"
    INDEX 01 00:00:07
  TRACK 03 AUDIO
    TITLE "0:"
    INDEX 01 00:01:17
  TRACK 04 AUDIO
    TITLE "3:cjc115_4975"
    INDEX 01 00:01:24
  TRACK 05 AUDIO
    TITLE "0:"
    INDEX 01 00:03:19
  TRACK 06 AUDIO
    TITLE "4:cjc115_4976"
    INDEX 01 00:03:35
  TRACK 07 AUDIO
    TITLE "0:"
    INDEX 01 00:06:37
  TRACK 08 AUDIO
    TITLE "2:cjc115_4977"
    INDEX 01 00:07:45
  TRACK 09 AUDIO
    TITLE "0:"
    INDEX 01 00:08:60
  TRACK 10 AUDIO
    TITLE "3:cjc115_4978"
    INDEX 01 00:08:66
  TRACK 11 AUDIO
    TITLE "0:"
    INDEX 01 00:11:40
  TRACK 12 AUDIO
    TITLE "4:cjc115_4979"
    INDEX 01 00:11:50
  TRACK 13 AUDIO
    TITLE "0:"
    INDEX 01 00:16:26
  TRACK 14 AUDIO
    TITLE "2:cjc115_4980"
    INDEX 01 00:17:35
  TRACK 15 AUDIO
    TITLE "0:"
    INDEX 01 00:18:46
  TRACK 16 AUDIO
    TITLE "3:cjc115_4981"
    INDEX 01 00:18:48
  TRACK 17 AUDIO
    TITLE "0:"
    INDEX 01 00:19:54
  TRACK 18 AUDIO
    TITLE "4:cjc115_4982"
    INDEX 01 00:19:71
  TRACK 19 AUDIO
    TITLE "0:"
    INDEX 01 00:23:03
  TRACK 20 AUDIO
    TITLE "2:cjc115_4983"
    INDEX 01 00:24:08
  TRACK 21 AUDIO
    TITLE "0:"
    INDEX 01 00:25:41
  TRACK 22 AUDIO
    TITLE "3:cjc115_4984"
    INDEX 01 00:25:46
  TRACK 23 AUDIO
    TITLE "0:"
    INDEX 01 00:27:61
  TRACK 24 AUDIO
    TITLE "4:cjc115_4985"
    INDEX 01 00:28:06
  TRACK 25 AUDIO
    TITLE "0:"
    INDEX 01 00:31:27
  TRACK 26 AUDIO
    TITLE "2:cjc115_4986"
    INDEX 01 00:32:39
  TRACK 27 AUDIO
    TITLE "0:"
    INDEX 01 00:33:64
  TRACK 28 AUDIO
    TITLE "3:cjc115_4987"
    INDEX 01 00:33:69
  TRACK 29 AUDIO
    TITLE "0:"
    INDEX 01 00:34:73
  TRACK 30 AUDIO
    TITLE "4:cjc115_4988"
    INDEX 01 00:35:08
  TRACK 31 AUDIO
    TITLE "0:"
    INDEX 01 00:38:41
  TRACK 32 AUDIO
    TITLE "2:cjc115_4989"
    INDEX 01 00:39:47
  TRACK 33 AUDIO
    TITLE "0:"
    INDEX 01 00:40:62
  TRACK 34 AUDIO
    TITLE "3:cjc115_4990"
    INDEX 01 00:40:73
  TRACK 35 AUDIO
    TITLE "0:"
    INDEX 01 00:43:66
  TRACK 36 AUDIO
    TITLE "4:cjc115_4991"
    INDEX 01 00:43:74
  TRACK 37 AUDIO
    TITLE "0:"
    INDEX 01 00:47:19
  TRACK 38 AUDIO
    TITLE "2:cjc115_4992"
    INDEX 01 00:48:30
  TRACK 39 AUDIO
    TITLE "0:"
    INDEX 01 00:49:53
  TRACK 40 AUDIO
    TITLE "3:cjc115_4993"
    INDEX 01 00:49:57
  TRACK 41 AUDIO
    TITLE "0:"
    INDEX 01 00:50:68
  TRACK 42 AUDIO
    TITLE "4:cjc115_4994"
    INDEX 01 00:51:01
  TRACK 43 AUDIO
    TITLE "0:"
    INDEX 01 00:54:72
  TRACK 44 AUDIO
    TITLE "2:cjc115_4995"
    INDEX 01 00:56:08
  TRACK 45 AUDIO
    TITLE "0:"
    INDEX 01 00:57:19
  TRACK 46 AUDIO
    TITLE "3:cjc115_4996"
    INDEX 01 00:57:27
  TRACK 47 AUDIO
    TITLE "0:"
    INDEX 01 00:59:53
  TRACK 48 AUDIO
    TITLE "4:cjc115_4997"
    INDEX 01 00:59:71
  TRACK 49 AUDIO
    TITLE "0:"
    INDEX 01 01:04:05
  TRACK 50 AUDIO
    TITLE "2:cjc115_4998"
    INDEX 01 01:05:15
  TRACK 51 AUDIO
    TITLE "0:"
    INDEX 01 01:06:34
  TRACK 52 AUDIO
    TITLE "3:cjc115_4999"
    INDEX 01 01:06:38
  TRACK 53 AUDIO
    TITLE "0:"
    INDEX 01 01:08:56
  TRACK 54 AUDIO
    TITLE "4:cjc115_5000"
    INDEX 01 01:08:62
  TRACK 55 AUDIO
    TITLE "0:"
    INDEX 01 01:13:10
  TRACK 56 AUDIO
    TITLE "2:cjc115_5001"
    INDEX 01 01:14:17
  TRACK 57 AUDIO
    TITLE "0:"
    INDEX 01 01:15:31
  TRACK 58 AUDIO
    TITLE "3:cjc115_5002"
    INDEX 01 01:15:40
  TRACK 59 AUDIO
    TITLE "0:"
    INDEX 01 01:18:37
  TRACK 60 AUDIO
    TITLE "4:cjc115_5003"
    INDEX 01 01:18:43
  TRACK 61 AUDIO
    TITLE "0:"
    INDEX 01 01:22:35
  TRACK 62 AUDIO
    TITLE "2:cjc115_5004"
    INDEX 01 01:23:46
  TRACK 63 AUDIO
    TITLE "0:"
    INDEX 01 01:25:04
  TRACK 64 AUDIO
    TITLE "3:cjc115_5005"
    INDEX 01 01:25:15
  TRACK 65 AUDIO
    TITLE "0:"
    INDEX 01 01:27:38
  TRACK 66 AUDIO
    TITLE "4:cjc115_5006"
    INDEX 01 01:27:44
  TRACK 67 AUDIO
    TITLE "0:"
    INDEX 01 01:31:22
  TRACK 68 AUDIO
    TITLE "2:cjc115_5007"
    INDEX 01 01:32:31
  TRACK 69 AUDIO
    TITLE "0:"
    INDEX 01 01:33:34
  TRACK 70 AUDIO
    TITLE "3:cjc115_5008"
    INDEX 01 01:33:42
  TRACK 71 AUDIO
    TITLE "0:"
    INDEX 01 01:35:49
  TRACK 72 AUDIO
    TITLE "4:cjc115_5009"
    INDEX 01 01:35:57
  TRACK 73 AUDIO
    TITLE "0:"
    INDEX 01 01:38:34
